<svg xmlns="http://www.w3.org/2000/svg" viewBox="0 0 270 333">
  <g fill="currentColor" fill-rule="evenodd">
    <polygon
      points="225 36 216 45 199.385 86.539 189 90 171 99 162 108 162 90 171 63 153 81 153 90 153 108 144 126 135 135 126 126 117 108 117 90 117 81 99 63 108 90 108 108 99 99 81 90 70.615 86.539 54 45 45 36 54 0 45 9 36 27 45 45 50.786 62.357 24 57 9 27 0 18 9 54 18 63 54 72 54 81 54 90 90 108 54 108 36 99 18 90 9 63 9 90 45 117 63 117 90 126 108 135 90 153 36 144 54 180 90 180 90 207 108 243 108 261 117 279 153 279 162 261 162 243 180 207 180 180 216 180 234 144 180 153 162 135 180 126 207 117 225 117 261 90 261 63 252 90 234 99 216 108 180 108 216 90 216 81 216 72 252 63 261 54 270 18 261 27 246 57 219.214 62.357 225 45 234 27 225 9 216 0"
    ></polygon>
    <polygon
      points="169 244.687 169 261.029 169 262.68 168.26 264.158 159.26 282.151 157.326 286.019 153 286.019 117 286.019 112.674 286.019 110.739 282.151 101.739 264.158 101 262.68 101 261.029 101 244.687 96.154 235 81 288.018 135 333 189 288.018 173.846 235"
    ></polygon>
  </g>
</svg>
